<svg width="157" height="17" viewBox="0 0 157 17" fill="none" xmlns="http://www.w3.org/2000/svg">
<path d="M9.24 16.308C8.02267 16.308 6.89333 16.1173 5.852 15.736C4.81067 15.34 3.90867 14.7827 3.146 14.064C2.398 13.3453 1.81133 12.502 1.386 11.534C0.960667 10.5513 0.748 9.47333 0.748 8.3C0.748 7.12667 0.960667 6.056 1.386 5.088C1.81133 4.10533 2.40533 3.25467 3.168 2.536C3.93067 1.81733 4.83267 1.26733 5.874 0.885999C6.93 0.489999 8.08133 0.291999 9.328 0.291999C10.78 0.291999 12.078 0.533999 13.222 1.018C14.366 1.502 15.312 2.19867 16.06 3.108L13.288 5.616C12.76 5.044 12.188 4.61867 11.572 4.34C10.9707 4.04667 10.296 3.9 9.548 3.9C8.888 3.9 8.28667 4.00267 7.744 4.208C7.20133 4.41333 6.73933 4.714 6.358 5.11C5.97667 5.49133 5.676 5.95333 5.456 6.496C5.25067 7.024 5.148 7.62533 5.148 8.3C5.148 8.94533 5.25067 9.53933 5.456 10.082C5.676 10.6247 5.97667 11.094 6.358 11.49C6.73933 11.8713 7.194 12.172 7.722 12.392C8.26467 12.5973 8.85867 12.7 9.504 12.7C10.1493 12.7 10.78 12.5973 11.396 12.392C12.012 12.172 12.6353 11.8053 13.266 11.292L15.708 14.35C14.828 14.9807 13.8087 15.4647 12.65 15.802C11.4913 16.1393 10.3547 16.308 9.24 16.308ZM11.858 13.778V7.97H15.708V14.35L11.858 13.778ZM27.3357 16.308C26.1037 16.308 24.967 16.11 23.9257 15.714C22.8844 15.318 21.975 14.7607 21.1977 14.042C20.435 13.3087 19.841 12.458 19.4157 11.49C18.9904 10.522 18.7777 9.45867 18.7777 8.3C18.7777 7.14133 18.9904 6.078 19.4157 5.11C19.841 4.142 20.435 3.29867 21.1977 2.58C21.975 1.84667 22.8844 1.282 23.9257 0.885999C24.967 0.489999 26.1037 0.291999 27.3357 0.291999C28.5824 0.291999 29.719 0.489999 30.7457 0.885999C31.787 1.282 32.689 1.84667 33.4517 2.58C34.2144 3.29867 34.8084 4.142 35.2337 5.11C35.6737 6.078 35.8937 7.14133 35.8937 8.3C35.8937 9.45867 35.6737 10.5293 35.2337 11.512C34.8084 12.48 34.2144 13.3233 33.4517 14.042C32.689 14.7607 31.787 15.318 30.7457 15.714C29.719 16.11 28.5824 16.308 27.3357 16.308ZM27.3357 12.7C27.9224 12.7 28.465 12.5973 28.9637 12.392C29.477 12.1867 29.917 11.8933 30.2837 11.512C30.665 11.116 30.9584 10.6467 31.1637 10.104C31.3837 9.56133 31.4937 8.96 31.4937 8.3C31.4937 7.62533 31.3837 7.024 31.1637 6.496C30.9584 5.95333 30.665 5.49133 30.2837 5.11C29.917 4.714 29.477 4.41333 28.9637 4.208C28.465 4.00267 27.9224 3.9 27.3357 3.9C26.749 3.9 26.199 4.00267 25.6857 4.208C25.187 4.41333 24.747 4.714 24.3657 5.11C23.999 5.49133 23.7057 5.95333 23.4857 6.496C23.2804 7.024 23.1777 7.62533 23.1777 8.3C23.1777 8.96 23.2804 9.56133 23.4857 10.104C23.7057 10.6467 23.999 11.116 24.3657 11.512C24.747 11.8933 25.187 12.1867 25.6857 12.392C26.199 12.5973 26.749 12.7 27.3357 12.7ZM44.6872 16.308C43.4258 16.308 42.2085 16.154 41.0352 15.846C39.8765 15.5233 38.9305 15.1127 38.1972 14.614L39.6272 11.402C40.3165 11.842 41.1085 12.2087 42.0032 12.502C42.9125 12.7807 43.8145 12.92 44.7092 12.92C45.3105 12.92 45.7945 12.8687 46.1612 12.766C46.5278 12.6487 46.7918 12.502 46.9532 12.326C47.1292 12.1353 47.2172 11.9153 47.2172 11.666C47.2172 11.314 47.0558 11.0353 46.7332 10.83C46.4105 10.6247 45.9925 10.456 45.4792 10.324C44.9658 10.192 44.3938 10.06 43.7632 9.928C43.1472 9.796 42.5238 9.62733 41.8932 9.422C41.2772 9.21667 40.7125 8.95267 40.1992 8.63C39.6858 8.29267 39.2678 7.86 38.9452 7.332C38.6225 6.78933 38.4612 6.10733 38.4612 5.286C38.4612 4.362 38.7105 3.526 39.2092 2.778C39.7225 2.03 40.4852 1.42867 41.4972 0.973999C42.5092 0.519332 43.7705 0.291999 45.2812 0.291999C46.2932 0.291999 47.2832 0.409333 48.2512 0.644C49.2338 0.863999 50.1065 1.194 50.8692 1.634L49.5272 4.868C48.7938 4.472 48.0678 4.17867 47.3492 3.988C46.6305 3.78267 45.9338 3.68 45.2592 3.68C44.6578 3.68 44.1738 3.746 43.8072 3.878C43.4405 3.99533 43.1765 4.15667 43.0152 4.362C42.8538 4.56733 42.7732 4.802 42.7732 5.066C42.7732 5.40333 42.9272 5.67467 43.2352 5.88C43.5578 6.07067 43.9758 6.232 44.4892 6.364C45.0172 6.48133 45.5892 6.606 46.2052 6.738C46.8358 6.87 47.4592 7.03867 48.0752 7.244C48.7058 7.43467 49.2778 7.69867 49.7912 8.036C50.3045 8.35867 50.7152 8.79133 51.0232 9.334C51.3458 9.862 51.5072 10.5293 51.5072 11.336C51.5072 12.2307 51.2505 13.0593 50.7372 13.822C50.2385 14.57 49.4832 15.1713 48.4712 15.626C47.4738 16.0807 46.2125 16.308 44.6872 16.308ZM58.6233 6.562H65.7733V9.818H58.6233V6.562ZM58.9313 12.634H66.9833V16H54.6193V0.599999H66.6973V3.966H58.9313V12.634ZM70.5005 16V0.599999H74.8565V12.546H82.2045V16H70.5005ZM85.0283 16V0.599999H89.3843V12.546H96.7323V16H85.0283ZM114.736 16.308C113.519 16.308 112.39 16.1173 111.348 15.736C110.322 15.34 109.427 14.7827 108.664 14.064C107.916 13.3453 107.33 12.502 106.904 11.534C106.479 10.5513 106.266 9.47333 106.266 8.3C106.266 7.12667 106.479 6.056 106.904 5.088C107.33 4.10533 107.916 3.25467 108.664 2.536C109.427 1.81733 110.322 1.26733 111.348 0.885999C112.39 0.489999 113.519 0.291999 114.736 0.291999C116.159 0.291999 117.428 0.541333 118.542 1.04C119.672 1.53867 120.61 2.25733 121.358 3.196L118.586 5.704C118.088 5.11733 117.538 4.67 116.936 4.362C116.35 4.054 115.69 3.9 114.956 3.9C114.326 3.9 113.746 4.00267 113.218 4.208C112.69 4.41333 112.236 4.714 111.854 5.11C111.488 5.49133 111.194 5.95333 110.974 6.496C110.769 7.03867 110.666 7.64 110.666 8.3C110.666 8.96 110.769 9.56133 110.974 10.104C111.194 10.6467 111.488 11.116 111.854 11.512C112.236 11.8933 112.69 12.1867 113.218 12.392C113.746 12.5973 114.326 12.7 114.956 12.7C115.69 12.7 116.35 12.546 116.936 12.238C117.538 11.93 118.088 11.4827 118.586 10.896L121.358 13.404C120.61 14.328 119.672 15.0467 118.542 15.56C117.428 16.0587 116.159 16.308 114.736 16.308ZM122.295 16L129.093 0.599999H133.383L140.203 16H135.671L130.347 2.734H132.063L126.739 16H122.295ZM126.013 13.008L127.135 9.796H134.659L135.781 13.008H126.013ZM142.538 16V0.599999H149.578C150.986 0.599999 152.196 0.827332 153.208 1.282C154.234 1.73667 155.026 2.39667 155.584 3.262C156.141 4.11267 156.42 5.12467 156.42 6.298C156.42 7.45667 156.141 8.46133 155.584 9.312C155.026 10.148 154.234 10.7933 153.208 11.248C152.196 11.688 150.986 11.908 149.578 11.908H144.958L146.894 10.082V16H142.538ZM152.064 16L148.236 10.39H152.878L156.728 16H152.064ZM146.894 10.544L144.958 8.542H149.314C150.223 8.542 150.898 8.344 151.338 7.948C151.792 7.552 152.02 7.002 152.02 6.298C152.02 5.57933 151.792 5.022 151.338 4.626C150.898 4.23 150.223 4.032 149.314 4.032H144.958L146.894 2.03V10.544Z" fill="white"/>
</svg>
