<svg width="129" height="14" viewBox="0 0 129 14" fill="none" xmlns="http://www.w3.org/2000/svg">
<path d="M7.56 13.252C6.564 13.252 5.64 13.096 4.788 12.784C3.936 12.46 3.198 12.004 2.574 11.416C1.962 10.828 1.482 10.138 1.134 9.346C0.786 8.542 0.612 7.66 0.612 6.7C0.612 5.74 0.786 4.864 1.134 4.072C1.482 3.268 1.968 2.572 2.592 1.984C3.216 1.396 3.954 0.946 4.806 0.633999C5.67 0.309999 6.612 0.147999 7.632 0.147999C8.82 0.147999 9.882 0.345999 10.818 0.741999C11.754 1.138 12.528 1.708 13.14 2.452L10.872 4.504C10.44 4.036 9.972 3.688 9.468 3.46C8.976 3.22 8.424 3.1 7.812 3.1C7.272 3.1 6.78 3.184 6.336 3.352C5.892 3.52 5.514 3.766 5.202 4.09C4.89 4.402 4.644 4.78 4.464 5.224C4.296 5.656 4.212 6.148 4.212 6.7C4.212 7.228 4.296 7.714 4.464 8.158C4.644 8.602 4.89 8.986 5.202 9.31C5.514 9.622 5.886 9.868 6.318 10.048C6.762 10.216 7.248 10.3 7.776 10.3C8.304 10.3 8.82 10.216 9.324 10.048C9.828 9.868 10.338 9.568 10.854 9.148L12.852 11.65C12.132 12.166 11.298 12.562 10.35 12.838C9.402 13.114 8.472 13.252 7.56 13.252ZM9.702 11.182V6.43H12.852V11.65L9.702 11.182ZM22.3656 13.252C21.3576 13.252 20.4276 13.09 19.5756 12.766C18.7236 12.442 17.9796 11.986 17.3436 11.398C16.7196 10.798 16.2336 10.102 15.8856 9.31C15.5376 8.518 15.3636 7.648 15.3636 6.7C15.3636 5.752 15.5376 4.882 15.8856 4.09C16.2336 3.298 16.7196 2.608 17.3436 2.02C17.9796 1.42 18.7236 0.957999 19.5756 0.633999C20.4276 0.309999 21.3576 0.147999 22.3656 0.147999C23.3856 0.147999 24.3156 0.309999 25.1556 0.633999C26.0076 0.957999 26.7456 1.42 27.3696 2.02C27.9936 2.608 28.4796 3.298 28.8276 4.09C29.1876 4.882 29.3676 5.752 29.3676 6.7C29.3676 7.648 29.1876 8.524 28.8276 9.328C28.4796 10.12 27.9936 10.81 27.3696 11.398C26.7456 11.986 26.0076 12.442 25.1556 12.766C24.3156 13.09 23.3856 13.252 22.3656 13.252ZM22.3656 10.3C22.8456 10.3 23.2896 10.216 23.6976 10.048C24.1176 9.88 24.4776 9.64 24.7776 9.328C25.0896 9.004 25.3296 8.62 25.4976 8.176C25.6776 7.732 25.7676 7.24 25.7676 6.7C25.7676 6.148 25.6776 5.656 25.4976 5.224C25.3296 4.78 25.0896 4.402 24.7776 4.09C24.4776 3.766 24.1176 3.52 23.6976 3.352C23.2896 3.184 22.8456 3.1 22.3656 3.1C21.8856 3.1 21.4356 3.184 21.0156 3.352C20.6076 3.52 20.2476 3.766 19.9356 4.09C19.6356 4.402 19.3956 4.78 19.2156 5.224C19.0476 5.656 18.9636 6.148 18.9636 6.7C18.9636 7.24 19.0476 7.732 19.2156 8.176C19.3956 8.62 19.6356 9.004 19.9356 9.328C20.2476 9.64 20.6076 9.88 21.0156 10.048C21.4356 10.216 21.8856 10.3 22.3656 10.3ZM36.5622 13.252C35.5302 13.252 34.5342 13.126 33.5742 12.874C32.6262 12.61 31.8522 12.274 31.2522 11.866L32.4222 9.238C32.9862 9.598 33.6342 9.898 34.3662 10.138C35.1102 10.366 35.8482 10.48 36.5802 10.48C37.0722 10.48 37.4682 10.438 37.7682 10.354C38.0682 10.258 38.2842 10.138 38.4162 9.994C38.5602 9.838 38.6322 9.658 38.6322 9.454C38.6322 9.166 38.5002 8.938 38.2362 8.77C37.9722 8.602 37.6302 8.464 37.2102 8.356C36.7902 8.248 36.3222 8.14 35.8062 8.032C35.3022 7.924 34.7922 7.786 34.2762 7.618C33.7722 7.45 33.3102 7.234 32.8902 6.97C32.4702 6.694 32.1282 6.34 31.8642 5.908C31.6002 5.464 31.4682 4.906 31.4682 4.234C31.4682 3.478 31.6722 2.794 32.0802 2.182C32.5002 1.57 33.1242 1.078 33.9522 0.705999C34.7802 0.333999 35.8122 0.147999 37.0482 0.147999C37.8762 0.147999 38.6862 0.243999 39.4782 0.436C40.2822 0.616 40.9962 0.885999 41.6202 1.246L40.5222 3.892C39.9222 3.568 39.3282 3.328 38.7402 3.172C38.1522 3.004 37.5822 2.92 37.0302 2.92C36.5382 2.92 36.1422 2.974 35.8422 3.082C35.5422 3.178 35.3262 3.31 35.1942 3.478C35.0622 3.646 34.9962 3.838 34.9962 4.054C34.9962 4.33 35.1222 4.552 35.3742 4.72C35.6382 4.876 35.9802 5.008 36.4002 5.116C36.8322 5.212 37.3002 5.314 37.8042 5.422C38.3202 5.53 38.8302 5.668 39.3342 5.836C39.8502 5.992 40.3182 6.208 40.7382 6.484C41.1582 6.748 41.4942 7.102 41.7462 7.546C42.0102 7.978 42.1422 8.524 42.1422 9.184C42.1422 9.916 41.9322 10.594 41.5122 11.218C41.1042 11.83 40.4862 12.322 39.6582 12.694C38.8422 13.066 37.8102 13.252 36.5622 13.252ZM47.9645 5.278H53.8145V7.942H47.9645V5.278ZM48.2165 10.246H54.8045V13H44.6885V0.399999H54.5705V3.154H48.2165V10.246ZM57.6823 13V0.399999H61.2463V10.174H67.2583V13H57.6823ZM69.5686 13V0.399999H73.1326V10.174H79.1446V13H69.5686Z" fill="#434343"/>
<path d="M93.8752 13.252C92.8792 13.252 91.9552 13.096 91.1032 12.784C90.2632 12.46 89.5312 12.004 88.9072 11.416C88.2952 10.828 87.8152 10.138 87.4672 9.346C87.1192 8.542 86.9452 7.66 86.9452 6.7C86.9452 5.74 87.1192 4.864 87.4672 4.072C87.8152 3.268 88.2952 2.572 88.9072 1.984C89.5312 1.396 90.2632 0.946 91.1032 0.633999C91.9552 0.309999 92.8792 0.147999 93.8752 0.147999C95.0392 0.147999 96.0772 0.351999 96.9892 0.76C97.9132 1.168 98.6812 1.756 99.2932 2.524L97.0252 4.576C96.6172 4.096 96.1672 3.73 95.6752 3.478C95.1952 3.226 94.6552 3.1 94.0552 3.1C93.5392 3.1 93.0652 3.184 92.6332 3.352C92.2012 3.52 91.8292 3.766 91.5172 4.09C91.2172 4.402 90.9772 4.78 90.7972 5.224C90.6292 5.668 90.5452 6.16 90.5452 6.7C90.5452 7.24 90.6292 7.732 90.7972 8.176C90.9772 8.62 91.2172 9.004 91.5172 9.328C91.8292 9.64 92.2012 9.88 92.6332 10.048C93.0652 10.216 93.5392 10.3 94.0552 10.3C94.6552 10.3 95.1952 10.174 95.6752 9.922C96.1672 9.67 96.6172 9.304 97.0252 8.824L99.2932 10.876C98.6812 11.632 97.9132 12.22 96.9892 12.64C96.0772 13.048 95.0392 13.252 93.8752 13.252ZM100.059 13L105.621 0.399999H109.131L114.711 13H111.003L106.647 2.146H108.051L103.695 13H100.059ZM103.101 10.552L104.019 7.924H110.175L111.093 10.552H103.101ZM116.622 13V0.399999H122.382C123.534 0.399999 124.524 0.585999 125.352 0.957999C126.192 1.33 126.84 1.87 127.296 2.578C127.752 3.274 127.98 4.102 127.98 5.062C127.98 6.01 127.752 6.832 127.296 7.528C126.84 8.212 126.192 8.74 125.352 9.112C124.524 9.472 123.534 9.652 122.382 9.652H118.602L120.186 8.158V13H116.622ZM124.416 13L121.284 8.41H125.082L128.232 13H124.416ZM120.186 8.536L118.602 6.898H122.166C122.91 6.898 123.462 6.736 123.822 6.412C124.194 6.088 124.38 5.638 124.38 5.062C124.38 4.474 124.194 4.018 123.822 3.694C123.462 3.37 122.91 3.208 122.166 3.208H118.602L120.186 1.57V8.536Z" fill="black"/>
</svg>
