<svg width="171" height="34" viewBox="0 0 171 34" fill="none" xmlns="http://www.w3.org/2000/svg">
<path d="M7.76555 0C9.82456 0 11.7992 0.81789 13.2552 2.27374C14.7111 3.72959 15.5291 5.70415 15.5291 7.76304C15.5291 9.82193 14.7111 11.7965 13.2552 13.2523C11.7992 14.7082 9.82456 15.5261 7.76555 15.5261C5.70654 15.5261 3.73186 14.7082 2.27592 13.2523C0.81998 11.7965 0.00204287 9.82193 0.00204287 7.76304C0.00204287 5.70415 0.81998 3.72959 2.27592 2.27374C3.73186 0.81789 5.70654 0 7.76555 0ZM15.527 26.237C15.527 27.7723 15.0717 29.2732 14.2186 30.5499C13.3656 31.8265 12.1531 32.8215 10.7345 33.4091C9.31588 33.9966 7.7549 34.1504 6.24892 33.8508C4.74295 33.5513 3.35963 32.8119 2.27388 31.7263C1.18814 30.6406 0.448734 29.2573 0.149177 27.7514C-0.15038 26.2456 0.00336405 24.6847 0.590965 23.2662C1.17857 21.8477 2.17364 20.6352 3.45034 19.7822C4.72704 18.9292 6.22803 18.4739 7.76351 18.4739C10.6038 18.4739 13.3278 17.3457 15.3363 15.3374C17.3447 13.3291 18.473 10.6052 18.473 7.76508C18.473 6.22969 18.9283 4.72879 19.7814 3.45216C20.6344 2.17554 21.8469 1.18053 23.2655 0.592965C24.6841 0.00539897 26.2451 -0.148334 27.7511 0.151204C29.257 0.450743 30.6404 1.1901 31.7261 2.27578C32.8119 3.36146 33.5513 4.7447 33.8508 6.25058C34.1504 7.75647 33.9966 9.31736 33.409 10.7359C32.8214 12.1544 31.8264 13.3668 30.5497 14.2198C29.273 15.0728 27.772 15.5281 26.2365 15.5281C23.3965 15.5287 20.673 16.6571 18.6651 18.6654C16.6571 20.6736 15.5291 23.3971 15.5291 26.237H15.527ZM26.2365 34C24.1775 34 22.2028 33.1821 20.7469 31.7263C19.2909 30.2704 18.473 28.2958 18.473 26.237C18.473 24.1781 19.2909 22.2035 20.7469 20.7477C22.2028 19.2918 24.1775 18.4739 26.2365 18.4739C28.2955 18.4739 30.2702 19.2918 31.7261 20.7477C33.1821 22.2035 34 24.1781 34 26.237C34 28.2958 33.1821 30.2704 31.7261 31.7263C30.2702 33.1821 28.2955 34 26.2365 34ZM26.2365 28.5773C26.8572 28.5773 27.4525 28.3307 27.8915 27.8918C28.3304 27.4529 28.577 26.8576 28.577 26.237C28.577 25.6163 28.3304 25.021 27.8915 24.5821C27.4525 24.1432 26.8572 23.8966 26.2365 23.8966C25.6158 23.8966 25.0205 24.1432 24.5815 24.5821C24.1426 25.021 23.896 25.6163 23.896 26.237C23.896 26.8576 24.1426 27.4529 24.5815 27.8918C25.0205 28.3307 25.6158 28.5773 26.2365 28.5773ZM7.76555 28.5773C8.38628 28.5773 8.98158 28.3307 9.42051 27.8918C9.85943 27.4529 10.106 26.8576 10.106 26.237C10.106 25.6163 9.85943 25.021 9.42051 24.5821C8.98158 24.1432 8.38628 23.8966 7.76555 23.8966C7.14482 23.8966 6.54951 24.1432 6.11059 24.5821C5.67166 25.021 5.42508 25.6163 5.42508 26.237C5.42508 26.8576 5.67166 27.4529 6.11059 27.8918C6.54951 28.3307 7.14482 28.5773 7.76555 28.5773ZM26.2365 10.1034C26.8572 10.1034 27.4525 9.8568 27.8915 9.4179C28.3304 8.97901 28.577 8.38373 28.577 7.76304C28.577 7.14235 28.3304 6.54708 27.8915 6.10818C27.4525 5.66928 26.8572 5.42271 26.2365 5.42271C25.6158 5.42271 25.0205 5.66928 24.5815 6.10818C24.1426 6.54708 23.896 7.14235 23.896 7.76304C23.896 8.38373 24.1426 8.97901 24.5815 9.4179C25.0205 9.8568 25.6158 10.1034 26.2365 10.1034ZM7.76555 10.1034C8.38628 10.1034 8.98158 9.8568 9.42051 9.4179C9.85943 8.97901 10.106 8.38373 10.106 7.76304C10.106 7.14235 9.85943 6.54708 9.42051 6.10818C8.98158 5.66928 8.38628 5.42271 7.76555 5.42271C7.14482 5.42271 6.54951 5.66928 6.11059 6.10818C5.67166 6.54708 5.42508 7.14235 5.42508 7.76304C5.42508 8.38373 5.67166 8.97901 6.11059 9.4179C6.54951 9.8568 7.14482 10.1034 7.76555 10.1034Z" fill="white"/>
<path d="M49.56 23.252C48.564 23.252 47.64 23.096 46.788 22.784C45.936 22.46 45.198 22.004 44.574 21.416C43.962 20.828 43.482 20.138 43.134 19.346C42.786 18.542 42.612 17.66 42.612 16.7C42.612 15.74 42.786 14.864 43.134 14.072C43.482 13.268 43.968 12.572 44.592 11.984C45.216 11.396 45.954 10.946 46.806 10.634C47.67 10.31 48.612 10.148 49.632 10.148C50.82 10.148 51.882 10.346 52.818 10.742C53.754 11.138 54.528 11.708 55.14 12.452L52.872 14.504C52.44 14.036 51.972 13.688 51.468 13.46C50.976 13.22 50.424 13.1 49.812 13.1C49.272 13.1 48.78 13.184 48.336 13.352C47.892 13.52 47.514 13.766 47.202 14.09C46.89 14.402 46.644 14.78 46.464 15.224C46.296 15.656 46.212 16.148 46.212 16.7C46.212 17.228 46.296 17.714 46.464 18.158C46.644 18.602 46.89 18.986 47.202 19.31C47.514 19.622 47.886 19.868 48.318 20.048C48.762 20.216 49.248 20.3 49.776 20.3C50.304 20.3 50.82 20.216 51.324 20.048C51.828 19.868 52.338 19.568 52.854 19.148L54.852 21.65C54.132 22.166 53.298 22.562 52.35 22.838C51.402 23.114 50.472 23.252 49.56 23.252ZM51.702 21.182V16.43H54.852V21.65L51.702 21.182ZM64.3656 23.252C63.3576 23.252 62.4276 23.09 61.5756 22.766C60.7236 22.442 59.9796 21.986 59.3436 21.398C58.7196 20.798 58.2336 20.102 57.8856 19.31C57.5376 18.518 57.3636 17.648 57.3636 16.7C57.3636 15.752 57.5376 14.882 57.8856 14.09C58.2336 13.298 58.7196 12.608 59.3436 12.02C59.9796 11.42 60.7236 10.958 61.5756 10.634C62.4276 10.31 63.3576 10.148 64.3656 10.148C65.3856 10.148 66.3156 10.31 67.1556 10.634C68.0076 10.958 68.7456 11.42 69.3696 12.02C69.9936 12.608 70.4796 13.298 70.8276 14.09C71.1876 14.882 71.3676 15.752 71.3676 16.7C71.3676 17.648 71.1876 18.524 70.8276 19.328C70.4796 20.12 69.9936 20.81 69.3696 21.398C68.7456 21.986 68.0076 22.442 67.1556 22.766C66.3156 23.09 65.3856 23.252 64.3656 23.252ZM64.3656 20.3C64.8456 20.3 65.2896 20.216 65.6976 20.048C66.1176 19.88 66.4776 19.64 66.7776 19.328C67.0896 19.004 67.3296 18.62 67.4976 18.176C67.6776 17.732 67.7676 17.24 67.7676 16.7C67.7676 16.148 67.6776 15.656 67.4976 15.224C67.3296 14.78 67.0896 14.402 66.7776 14.09C66.4776 13.766 66.1176 13.52 65.6976 13.352C65.2896 13.184 64.8456 13.1 64.3656 13.1C63.8856 13.1 63.4356 13.184 63.0156 13.352C62.6076 13.52 62.2476 13.766 61.9356 14.09C61.6356 14.402 61.3956 14.78 61.2156 15.224C61.0476 15.656 60.9636 16.148 60.9636 16.7C60.9636 17.24 61.0476 17.732 61.2156 18.176C61.3956 18.62 61.6356 19.004 61.9356 19.328C62.2476 19.64 62.6076 19.88 63.0156 20.048C63.4356 20.216 63.8856 20.3 64.3656 20.3ZM78.5622 23.252C77.5302 23.252 76.5342 23.126 75.5742 22.874C74.6262 22.61 73.8522 22.274 73.2522 21.866L74.4222 19.238C74.9862 19.598 75.6342 19.898 76.3662 20.138C77.1102 20.366 77.8482 20.48 78.5802 20.48C79.0722 20.48 79.4682 20.438 79.7682 20.354C80.0682 20.258 80.2842 20.138 80.4162 19.994C80.5602 19.838 80.6322 19.658 80.6322 19.454C80.6322 19.166 80.5002 18.938 80.2362 18.77C79.9722 18.602 79.6302 18.464 79.2102 18.356C78.7902 18.248 78.3222 18.14 77.8062 18.032C77.3022 17.924 76.7922 17.786 76.2762 17.618C75.7722 17.45 75.3102 17.234 74.8902 16.97C74.4702 16.694 74.1282 16.34 73.8642 15.908C73.6002 15.464 73.4682 14.906 73.4682 14.234C73.4682 13.478 73.6722 12.794 74.0802 12.182C74.5002 11.57 75.1242 11.078 75.9522 10.706C76.7802 10.334 77.8122 10.148 79.0482 10.148C79.8762 10.148 80.6862 10.244 81.4782 10.436C82.2822 10.616 82.9962 10.886 83.6202 11.246L82.5222 13.892C81.9222 13.568 81.3282 13.328 80.7402 13.172C80.1522 13.004 79.5822 12.92 79.0302 12.92C78.5382 12.92 78.1422 12.974 77.8422 13.082C77.5422 13.178 77.3262 13.31 77.1942 13.478C77.0622 13.646 76.9962 13.838 76.9962 14.054C76.9962 14.33 77.1222 14.552 77.3742 14.72C77.6382 14.876 77.9802 15.008 78.4002 15.116C78.8322 15.212 79.3002 15.314 79.8042 15.422C80.3202 15.53 80.8302 15.668 81.3342 15.836C81.8502 15.992 82.3182 16.208 82.7382 16.484C83.1582 16.748 83.4942 17.102 83.7462 17.546C84.0102 17.978 84.1422 18.524 84.1422 19.184C84.1422 19.916 83.9322 20.594 83.5122 21.218C83.1042 21.83 82.4862 22.322 81.6582 22.694C80.8422 23.066 79.8102 23.252 78.5622 23.252ZM89.9645 15.278H95.8145V17.942H89.9645V15.278ZM90.2165 20.246H96.8045V23H86.6885V10.4H96.5705V13.154H90.2165V20.246ZM99.6823 23V10.4H103.246V20.174H109.258V23H99.6823ZM111.569 23V10.4H115.133V20.174H121.145V23H111.569ZM135.875 23.252C134.879 23.252 133.955 23.096 133.103 22.784C132.263 22.46 131.531 22.004 130.907 21.416C130.295 20.828 129.815 20.138 129.467 19.346C129.119 18.542 128.945 17.66 128.945 16.7C128.945 15.74 129.119 14.864 129.467 14.072C129.815 13.268 130.295 12.572 130.907 11.984C131.531 11.396 132.263 10.946 133.103 10.634C133.955 10.31 134.879 10.148 135.875 10.148C137.039 10.148 138.077 10.352 138.989 10.76C139.913 11.168 140.681 11.756 141.293 12.524L139.025 14.576C138.617 14.096 138.167 13.73 137.675 13.478C137.195 13.226 136.655 13.1 136.055 13.1C135.539 13.1 135.065 13.184 134.633 13.352C134.201 13.52 133.829 13.766 133.517 14.09C133.217 14.402 132.977 14.78 132.797 15.224C132.629 15.668 132.545 16.16 132.545 16.7C132.545 17.24 132.629 17.732 132.797 18.176C132.977 18.62 133.217 19.004 133.517 19.328C133.829 19.64 134.201 19.88 134.633 20.048C135.065 20.216 135.539 20.3 136.055 20.3C136.655 20.3 137.195 20.174 137.675 19.922C138.167 19.67 138.617 19.304 139.025 18.824L141.293 20.876C140.681 21.632 139.913 22.22 138.989 22.64C138.077 23.048 137.039 23.252 135.875 23.252ZM142.059 23L147.621 10.4H151.131L156.711 23H153.003L148.647 12.146H150.051L145.695 23H142.059ZM145.101 20.552L146.019 17.924H152.175L153.093 20.552H145.101ZM158.622 23V10.4H164.382C165.534 10.4 166.524 10.586 167.352 10.958C168.192 11.33 168.84 11.87 169.296 12.578C169.752 13.274 169.98 14.102 169.98 15.062C169.98 16.01 169.752 16.832 169.296 17.528C168.84 18.212 168.192 18.74 167.352 19.112C166.524 19.472 165.534 19.652 164.382 19.652H160.602L162.186 18.158V23H158.622ZM166.416 23L163.284 18.41H167.082L170.232 23H166.416ZM162.186 18.536L160.602 16.898H164.166C164.91 16.898 165.462 16.736 165.822 16.412C166.194 16.088 166.38 15.638 166.38 15.062C166.38 14.474 166.194 14.018 165.822 13.694C165.462 13.37 164.91 13.208 164.166 13.208H160.602L162.186 11.57V18.536Z" fill="white"/>
</svg>
